<?xml version="1.0" encoding="utf-8"?>
<!-- Generator: Adobe Illustrator 24.2.3, SVG Export Plug-In . SVG Version: 6.00 Build 0)  -->
<svg version="1.1" id="Capa_1" xmlns="http://www.w3.org/2000/svg" xmlns:xlink="http://www.w3.org/1999/xlink" x="0px" y="0px"
	 viewBox="0 0 100 100" style="enable-background:new 0 0 100 100;" xml:space="preserve">
<style type="text/css">
	.st0{fill:#004B80;}
	.st1{fill:#FFFFFF;}
</style>
<g>
	<circle class="st0" cx="50.26" cy="50" r="39.7"/>
	<g>
		<path class="st1" d="M73.37,67.02l-7.12-6.11c0.54-0.8,0.92-1.57,1.13-2.3c1.23-4.29,0.25-8.42-0.27-10.64
			c-0.55-2.32-0.45-3.25,0.44-4.13c1.24-1.24,4.18-4.04,4.21-4.07c0.19-0.18,0.31-0.44,0.31-0.7c0-0.27-0.1-0.52-0.28-0.72
			l-6.19-6.38c-0.37-0.39-0.99-0.41-1.39-0.05c-0.02,0.02-2.36,2.12-3.97,3.19c-0.33,0.22-0.73,0.22-1.18-0.02
			c-0.68-0.36-1.21-1.16-1.21-1.82v-4.22c0-0.55-0.45-1-1-1H44.58c-0.55,0-1,0.45-1,1v4.22c0,0.66-0.53,1.46-1.21,1.82
			c-0.44,0.24-0.84,0.25-1.18,0.02c-1.61-1.07-3.94-3.17-3.97-3.19c-0.4-0.36-1.01-0.34-1.39,0.05l-6.19,6.38
			c-0.19,0.19-0.29,0.45-0.28,0.72c0.01,0.27,0.12,0.52,0.31,0.7c0.03,0.03,2.96,2.82,4.21,4.07c0.88,0.89,0.98,1.81,0.44,4.13
			c-0.52,2.22-1.49,6.35-0.27,10.64c1.36,4.74,9.37,10.19,16.22,12.9c0.12,0.05,0.24,0.07,0.37,0.07h0.16
			c0.13,0,0.25-0.02,0.37-0.07c3.76-1.49,7.53-3.64,10.5-5.96l7.47,6.41c0.19,0.16,0.42,0.24,0.65,0.24c0.28,0,0.56-0.12,0.76-0.35
			l2.93-3.42c0.17-0.2,0.26-0.46,0.24-0.73C73.7,67.44,73.57,67.19,73.37,67.02z M50.71,69.53c-7.18-2.91-13.76-8.02-14.74-11.48
			c-1.08-3.79-0.22-7.45,0.29-9.63c0.61-2.58,0.64-4.39-0.97-6c-0.88-0.88-2.55-2.48-3.51-3.4l4.83-4.97
			c0.86,0.74,2.31,1.96,3.47,2.74c0.95,0.64,2.13,0.67,3.23,0.08c1.33-0.71,2.27-2.19,2.27-3.58v-3.22h10.26v3.22
			c0,1.4,0.93,2.87,2.27,3.58c1.1,0.59,2.27,0.56,3.23-0.08c1.16-0.78,2.62-2,3.47-2.74l4.83,4.97c-0.96,0.92-2.63,2.52-3.51,3.4
			c-1.61,1.61-1.58,3.42-0.97,6c0.51,2.19,1.38,5.85,0.29,9.63c-0.13,0.47-0.39,0.99-0.74,1.54l-2.28-1.96
			c-0.2-0.17-0.46-0.26-0.73-0.24c-0.26,0.02-0.51,0.14-0.68,0.35l-0.55,0.64l-0.87-0.75c1.43-2.1,2.1-4.6,1.9-7.17
			c-0.23-3-1.62-5.74-3.9-7.7v0c-2.29-1.96-5.2-2.92-8.2-2.68c-3,0.23-5.74,1.62-7.7,3.9c-4.05,4.72-3.5,11.85,1.22,15.9
			c2.12,1.82,4.73,2.71,7.33,2.71c2.7,0,5.38-0.97,7.5-2.85l0.9,0.77l-0.55,0.64c-0.36,0.42-0.31,1.05,0.11,1.41l1.92,1.65
			C57.42,66.27,54.07,68.17,50.71,69.53z M59.51,50.62c0.19,2.47-0.59,4.87-2.21,6.75c-3.33,3.88-9.2,4.33-13.08,1
			c-3.88-3.33-4.33-9.2-1-13.08c1.61-1.88,3.86-3.02,6.33-3.21c0.24-0.02,0.48-0.03,0.72-0.03c2.21,0,4.33,0.78,6.02,2.24
			c0,0,0,0,0,0C58.18,45.9,59.32,48.15,59.51,50.62z M69.68,69.79l-9.42-8.08l0.16-0.19c0.21-0.04,0.42-0.13,0.57-0.31l0.53-0.61
			c0.15-0.17,0.22-0.39,0.22-0.62l0.15-0.18l9.42,8.08L69.68,69.79z"/>
		<path class="st1" d="M55.27,45.5c-1.39-1.19-3.17-1.85-5-1.85c0,0,0,0,0,0c-0.55,0-1,0.45-1,1s0.45,1,1,1h0c0,0,0,0,0,0
			c1.36,0,2.67,0.48,3.7,1.37c1.26,1.08,1.98,2.65,1.98,4.32c0,0.55,0.45,1,1,1h0c0.55,0,1-0.45,1-1
			C57.94,49.08,56.97,46.96,55.27,45.5z"/>
	</g>
</g>
<path class="st0" d="M50.26,97.07C24.31,97.07,3.19,75.96,3.19,50S24.31,2.94,50.26,2.94S97.32,24.05,97.32,50
	S76.21,97.07,50.26,97.07z M50.26,4.94C25.41,4.94,5.19,25.15,5.19,50c0,24.85,20.22,45.07,45.07,45.07S95.32,74.85,95.32,50
	C95.32,25.15,75.11,4.94,50.26,4.94z"/>
</svg>
