<?xml version="1.0" encoding="utf-8"?>
<!-- Generator: Adobe Illustrator 24.2.3, SVG Export Plug-In . SVG Version: 6.00 Build 0)  -->
<svg version="1.1" id="Capa_1" xmlns="http://www.w3.org/2000/svg" xmlns:xlink="http://www.w3.org/1999/xlink" x="0px" y="0px"
	 viewBox="0 0 100 100" style="enable-background:new 0 0 100 100;" xml:space="preserve">
<style type="text/css">
	.st0{fill:#004B80;}
	.st1{fill:#FFFFFF;}
</style>
<g>
	<g>
		<circle class="st0" cx="50.26" cy="50" r="39.7"/>
		<g>
			<path class="st1" d="M76.37,33.95h-2.74c-0.15,0-0.28,0.03-0.41,0.09v-2.53c0-0.55-0.45-1-1-1H55.48
				c-0.48-0.05-2.83-0.22-4.62,1.33c-0.4,0.34-0.73,0.74-1,1.19c-0.28-0.45-0.61-0.85-1-1.19c-1.79-1.55-4.15-1.39-4.62-1.33H27.47
				c-0.55,0-1,0.45-1,1v2.55c-0.13-0.06-0.27-0.1-0.43-0.1h-3.03c-0.55,0-1,0.45-1,1v34.52c0,0.55,0.45,1,1,1h22.33
				c1,1.39,2.61,2.23,4.34,2.23s3.34-0.84,4.34-2.23h7.67c0.07,0,0.13-0.03,0.2-0.04v2.58c0,0.4,0.24,0.77,0.62,0.92
				c0.12,0.05,0.25,0.08,0.38,0.08c0.26,0,0.52-0.1,0.71-0.29l2.13-2.13l2.13,2.13c0.29,0.29,0.72,0.37,1.09,0.22
				c0.37-0.15,0.62-0.52,0.62-0.92v-2.6c0.1,0.03,0.19,0.06,0.3,0.06h6.5c0.55,0,1-0.45,1-1V34.95
				C77.37,34.4,76.93,33.95,76.37,33.95z M69.58,62.68h1.65v2.25h-1.65V62.68z M52.15,33.37c1.26-1.1,3.11-0.87,3.12-0.87
				c0.05,0.01,0.1,0.01,0.14,0.01h15.81v28.17h-2.65h-5.67h-8.3c-1.52,0-2.8,0.5-3.76,1.28V37.08
				C50.85,35.37,51.29,34.12,52.15,33.37z M61.91,64.93H51.06c0.44-1.12,1.59-2.25,3.55-2.25h7.3V64.93z M28.47,62.68h16.62
				c1.96,0,3.11,1.13,3.55,2.25H28.47V62.68z M44.28,32.51c0.05,0,0.1,0,0.14-0.01c0.02,0,1.85-0.23,3.11,0.86
				c0.87,0.75,1.31,2.01,1.31,3.72v24.88c-0.96-0.77-2.23-1.28-3.76-1.28H28.47V32.51H44.28z M61.71,68.48h-8.22
				c-0.36,0-0.69,0.2-0.87,0.51c-0.59,1.06-1.72,1.72-2.92,1.72c-1.21,0-2.33-0.66-2.93-1.72c-0.18-0.31-0.51-0.51-0.87-0.51H24.02
				V35.95h2.03c0.15,0,0.3-0.04,0.43-0.1v30.08c0,0.55,0.45,1,1,1h22.37h12.06v1.58C61.84,68.5,61.78,68.48,61.71,68.48z
				 M67.58,70.6l-1.13-1.13c-0.39-0.39-1.02-0.39-1.41,0l-1.13,1.13v-7.92h3.67V70.6z M75.37,68.48h-5.5c-0.11,0-0.2,0.03-0.3,0.06
				v-1.6h2.65c0.55,0,1-0.45,1-1V35.86c0.13,0.06,0.26,0.09,0.41,0.09h1.74V68.48z"/>
			<path class="st1" d="M30.88,41.82h14.48c0.55,0,1-0.45,1-1v-5.06c0-0.55-0.45-1-1-1H30.88c-0.55,0-1,0.45-1,1v5.06
				C29.88,41.38,30.33,41.82,30.88,41.82z M31.88,36.76h12.48v3.06H31.88V36.76z"/>
			<path class="st1" d="M30.88,45.56h14.48c0.55,0,1-0.45,1-1s-0.45-1-1-1H30.88c-0.55,0-1,0.45-1,1S30.33,45.56,30.88,45.56z"/>
			<path class="st1" d="M30.88,49.29h14.48c0.55,0,1-0.45,1-1s-0.45-1-1-1H30.88c-0.55,0-1,0.45-1,1S30.33,49.29,30.88,49.29z"/>
			<path class="st1" d="M30.88,53.03h14.48c0.55,0,1-0.45,1-1s-0.45-1-1-1H30.88c-0.55,0-1,0.45-1,1S30.33,53.03,30.88,53.03z"/>
			<path class="st1" d="M30.88,56.76h14.48c0.55,0,1-0.45,1-1s-0.45-1-1-1H30.88c-0.55,0-1,0.45-1,1S30.33,56.76,30.88,56.76z"/>
			<path class="st1" d="M53.8,49.29h14.48c0.55,0,1-0.45,1-1s-0.45-1-1-1H53.8c-0.55,0-1,0.45-1,1S53.24,49.29,53.8,49.29z"/>
			<path class="st1" d="M53.8,53.03h14.48c0.55,0,1-0.45,1-1s-0.45-1-1-1H53.8c-0.55,0-1,0.45-1,1S53.24,53.03,53.8,53.03z"/>
			<path class="st1" d="M53.8,38.09h14.48c0.55,0,1-0.45,1-1s-0.45-1-1-1H53.8c-0.55,0-1,0.45-1,1S53.24,38.09,53.8,38.09z"/>
			<path class="st1" d="M53.8,41.82h14.48c0.55,0,1-0.45,1-1s-0.45-1-1-1H53.8c-0.55,0-1,0.45-1,1S53.24,41.82,53.8,41.82z"/>
			<path class="st1" d="M53.8,45.56h14.48c0.55,0,1-0.45,1-1s-0.45-1-1-1H53.8c-0.55,0-1,0.45-1,1S53.24,45.56,53.8,45.56z"/>
			<path class="st1" d="M53.8,56.76h14.48c0.55,0,1-0.45,1-1s-0.45-1-1-1H53.8c-0.55,0-1,0.45-1,1S53.24,56.76,53.8,56.76z"/>
		</g>
	</g>
	<path class="st0" d="M50.26,2.94C24.31,2.94,3.19,24.05,3.19,50s21.11,47.07,47.07,47.07S97.32,75.96,97.32,50
		S76.21,2.94,50.26,2.94z M50.26,95.07C25.41,95.07,5.19,74.85,5.19,50S25.41,4.94,50.26,4.94S95.32,25.15,95.32,50
		S75.11,95.07,50.26,95.07z"/>
</g>
</svg>
