<svg width="90" height="56" viewBox="0 0 90 56" fill="none" xmlns="http://www.w3.org/2000/svg">
<path d="M73.4217 28.711C73.4217 28.6929 73.4217 28.6743 73.4217 28.6562C73.4229 28.0963 73.1816 27.5511 72.7338 27.1019C72.2861 26.6527 71.6558 26.3235 70.9368 26.1633C70.8986 25.2963 70.4105 24.4744 69.5756 23.8709C68.7405 23.2674 67.6241 22.9296 66.4617 22.9289C65.9859 22.9282 65.5131 22.9849 65.0615 23.0967C64.626 22.5299 63.908 22.1144 63.0638 21.9409C62.2196 21.7674 61.3178 21.8499 60.5547 22.1705C60.2441 21.7281 59.804 21.3435 59.2674 21.045C58.7307 20.7465 58.1111 20.5418 57.4542 20.4461C56.7972 20.3502 56.12 20.3658 55.4721 20.4916C54.8244 20.6174 54.2228 20.8501 53.7119 21.1727C53.2008 20.8498 52.5992 20.6167 51.9513 20.4906C51.3033 20.3646 50.6258 20.3488 49.9685 20.4445C49.3113 20.5402 48.6914 20.7449 48.1545 21.0434C47.6175 21.342 47.1774 21.7268 46.8666 22.1693C46.1036 21.8488 45.2018 21.7663 44.3576 21.9398C43.5134 22.1132 42.7953 22.5286 42.3597 23.0955C41.9082 22.9837 41.4354 22.927 40.9596 22.9276C39.7973 22.9288 38.681 23.2668 37.8462 23.8706C37.0116 24.4743 36.5238 25.2963 36.486 26.1633C35.7671 26.3235 35.1368 26.6527 34.689 27.1019C34.2413 27.5511 33.9999 28.0963 34.0011 28.6562V28.711C32.9375 28.9926 32.0414 29.5456 31.4711 30.2724C30.9008 30.9992 30.6929 31.853 30.8841 32.683C31.0755 33.5131 31.6538 34.266 32.5167 34.8088C33.3797 35.3516 34.4718 35.6493 35.6004 35.6495C35.8971 35.6495 36.1931 35.6286 36.4844 35.5871C37.1088 36.1664 38.0066 36.5454 38.9934 36.6464C39.9804 36.7475 40.9817 36.5628 41.792 36.1304L41.946 36.3207C42.3261 36.7964 42.8133 37.2197 43.3863 37.5717L49.4516 41.2967V47.013C49.4516 51.0324 47.8238 53.0144 47.2946 53.5531H43.6067C43.4279 53.5531 43.2564 53.606 43.13 53.7004C43.0035 53.7947 42.9326 53.9227 42.9326 54.0561C42.9326 54.1895 43.0035 54.3175 43.13 54.4119C43.2564 54.5061 43.4279 54.5591 43.6067 54.5591H63.8169C63.9957 54.5591 64.1672 54.5061 64.2936 54.4119C64.4201 54.3175 64.491 54.1895 64.491 54.0561C64.491 53.9227 64.4201 53.7947 64.2936 53.7004C64.1672 53.606 63.9957 53.5531 63.8169 53.5531H60.1302C59.5968 53.0109 57.9732 51.0289 57.9732 47.013V41.3636L64.9067 38.6546C65.6942 38.347 66.3423 37.8726 66.7698 37.2912L67.2552 36.6337C67.9382 36.7188 68.6393 36.6666 69.2864 36.4827C69.9335 36.2988 70.5035 35.9896 70.9376 35.5871C71.2296 35.6287 71.5263 35.6496 71.8236 35.6495C72.9522 35.6493 74.0444 35.3516 74.9073 34.8088C75.7703 34.266 76.3485 33.5131 76.5398 32.683C76.7312 31.853 76.5233 30.9992 75.953 30.2724C75.3827 29.5456 74.4854 28.9926 73.4217 28.711ZM65.5896 36.8062C65.2887 37.2145 64.8332 37.5474 64.28 37.7632L56.9859 40.6134C56.877 40.6559 56.7857 40.72 56.7219 40.7984C56.6583 40.877 56.6246 40.9671 56.6246 41.0589V47.013C56.6246 50.4338 57.732 52.5055 58.5287 53.5531H48.8969C49.6935 52.5055 50.801 50.4341 50.801 47.013V41.0589C50.8008 40.9847 50.7788 40.9114 50.7365 40.8443C50.694 40.7771 50.6322 40.7178 50.5556 40.6706L44.31 36.8364C44.4599 36.8476 44.6109 36.8551 44.763 36.8551C45.6852 36.8548 46.5846 36.6407 47.3369 36.2425L51.0956 37.8376C51.242 37.8994 51.4139 37.9182 51.5778 37.8902C51.7418 37.8622 51.8858 37.7896 51.9815 37.6864L54.2927 35.1899C55.0167 35.1221 55.7094 34.9284 56.315 34.6245C56.5181 34.7309 56.7351 34.8218 56.9628 34.8955L56.0961 37.8819C56.0711 37.9688 56.0771 38.0591 56.114 38.1437C56.1507 38.2282 56.2169 38.3039 56.3055 38.3633C56.3943 38.4226 56.5026 38.4632 56.6192 38.4812C56.7359 38.4991 56.8568 38.4937 56.9697 38.4654L63.9722 36.7079C63.9837 36.705 63.9938 36.7002 64.0053 36.6967C64.562 36.566 65.0792 36.3553 65.5277 36.0766C65.6682 36.1554 65.8158 36.2271 65.9694 36.2911L65.5896 36.8062ZM48.3473 35.5126C48.4754 35.3848 48.5913 35.2503 48.6939 35.1103C49.5498 35.1697 50.406 34.9979 51.1064 34.6258C51.5918 34.8698 52.1343 35.0436 52.7057 35.1381L51.2253 36.7367L48.3473 35.5126ZM58.7301 35.1103C59.1606 35.7019 59.8226 36.1816 60.6276 36.4854L57.6659 37.2288L58.2798 35.1174C58.43 35.1221 58.5804 35.1195 58.7301 35.1103ZM71.8224 34.6431C71.4914 34.6427 71.1621 34.6067 70.8449 34.5362C70.703 34.5046 70.5512 34.5088 70.4129 34.5482C70.2746 34.5875 70.1576 34.6597 70.0799 34.7537C69.7805 35.1177 69.3267 35.3965 68.7906 35.5459C68.2545 35.6954 67.667 35.7068 67.1211 35.5785L67.1012 35.5745C66.6813 35.4722 66.3041 35.2908 66.006 35.0475C65.943 34.9964 65.8664 34.9554 65.7812 34.9274C65.696 34.8993 65.6039 34.8848 65.5107 34.8846H65.5029C65.4086 34.8854 65.3154 34.901 65.2296 34.9303C65.1438 34.9597 65.0673 35.0022 65.0049 35.055C64.6517 35.3557 64.2006 35.5835 63.6953 35.7163C63.1899 35.8492 62.6472 35.8826 62.1194 35.8135C61.5917 35.7444 61.0967 35.575 60.6821 35.3216C60.2675 35.0683 59.9474 34.7396 59.7524 34.3671C59.7023 34.2737 59.6157 34.1935 59.5038 34.1372C59.3921 34.0809 59.2602 34.0508 59.1254 34.0509C59.0714 34.0507 59.0177 34.0556 58.9655 34.0653C58.6238 34.1286 58.2674 34.1328 57.9231 34.0777C57.9135 34.0757 57.905 34.0725 57.8951 34.0708C57.885 34.069 57.8745 34.0693 57.8642 34.0682C57.4644 33.9943 57.0989 33.8408 56.8068 33.624C56.6858 33.5353 56.5242 33.4838 56.3546 33.4801C56.1849 33.4763 56.0196 33.5204 55.8917 33.6037C55.2881 33.9976 54.5136 34.2147 53.7119 34.2147C52.91 34.2147 52.1355 33.9976 51.5321 33.6037C51.404 33.5204 51.2387 33.4763 51.069 33.4801C50.8994 33.4838 50.7378 33.5353 50.6168 33.624C50.3405 33.8321 49.9958 33.9823 49.6173 34.0598C49.2387 34.1372 48.8396 34.1391 48.4598 34.0653C48.3015 34.0361 48.1347 34.0505 47.9897 34.106C47.8448 34.1615 47.7317 34.2543 47.6712 34.3671C47.4989 34.696 47.229 34.9917 46.8819 35.2318C46.8716 35.2376 46.8615 35.2439 46.8515 35.2499C46.5447 35.4563 46.1859 35.6151 45.7962 35.7173C45.4065 35.8194 44.9934 35.8627 44.5811 35.8448C44.1687 35.8268 43.7652 35.7479 43.3941 35.6128C43.0229 35.4775 42.6914 35.2886 42.4187 35.0571C42.3566 35.0039 42.2801 34.9609 42.1943 34.9312C42.1085 34.9016 42.0153 34.8856 41.9207 34.8846H41.913C41.8199 34.8846 41.7279 34.8989 41.6427 34.9268C41.5575 34.9546 41.4809 34.9952 41.4176 35.0461C41.1495 35.2644 40.8171 35.4333 40.4466 35.5393C40.0761 35.6454 39.6777 35.6858 39.2828 35.6574C38.8878 35.629 38.5071 35.5325 38.1705 35.3755C37.8341 35.2185 37.551 35.0054 37.3439 34.7529C37.2662 34.6589 37.149 34.5867 37.0107 34.5473C36.8724 34.508 36.7206 34.5038 36.5789 34.5353C36.1346 34.6363 35.6673 34.6691 35.2056 34.6316C34.7438 34.5942 34.2971 34.4873 33.8922 34.3174C33.4874 34.1475 33.1328 33.9181 32.85 33.6431C32.5673 33.3682 32.3621 33.0533 32.2469 32.7175C32.1317 32.3816 32.1089 32.0319 32.18 31.6893C32.2509 31.3468 32.4141 31.0185 32.6598 30.7243C32.9055 30.4301 33.2286 30.1763 33.6095 29.9779C33.9903 29.7794 34.4211 29.6407 34.8759 29.57C35.0498 29.5421 35.2017 29.4641 35.2988 29.3529C35.3958 29.2416 35.43 29.1063 35.394 28.9764C35.3346 28.759 35.3366 28.5347 35.3997 28.3179C35.4629 28.1011 35.586 27.8965 35.7611 27.7171C35.9361 27.5378 36.1593 27.3877 36.4164 27.2763C36.6735 27.1649 36.959 27.0947 37.2545 27.0702C37.4316 27.056 37.5941 26.9899 37.706 26.8863C37.818 26.7828 37.8702 26.6503 37.8515 26.5181C37.8398 26.4356 37.8338 26.3526 37.8333 26.2697C37.8344 25.6507 38.1644 25.0573 38.7509 24.6196C39.3374 24.1819 40.1325 23.9357 40.9619 23.9349C41.4639 23.9344 41.9585 24.0251 42.4029 24.1991C42.4908 24.2333 42.5876 24.2526 42.6866 24.2557C42.7856 24.2588 42.8843 24.2456 42.9756 24.2169C43.0668 24.1883 43.1486 24.145 43.215 24.0901C43.2813 24.0351 43.3307 23.97 43.3593 23.8992C43.4594 23.6531 43.6445 23.4309 43.896 23.2551C44.1476 23.0791 44.4567 22.9557 44.7924 22.8972C45.1281 22.8387 45.4785 22.8471 45.8084 22.9217C46.1384 22.9961 46.4361 23.1342 46.6721 23.3218C46.7541 23.3868 46.8581 23.4343 46.973 23.4595C47.0879 23.4847 47.2097 23.4865 47.3259 23.465C47.442 23.4433 47.5484 23.399 47.634 23.3364C47.7197 23.2739 47.7815 23.1956 47.813 23.1094C47.9622 22.7005 48.2579 22.3297 48.6684 22.037C49.0788 21.7442 49.5885 21.5405 50.1425 21.4477C50.6966 21.355 51.2739 21.3767 51.8127 21.5106C52.3514 21.6445 52.8309 21.8855 53.1999 22.2076C53.2652 22.2603 53.3442 22.3025 53.4324 22.3312C53.5205 22.3601 53.6156 22.3749 53.7119 22.3749C53.808 22.3749 53.9031 22.3601 53.9913 22.3312C54.0794 22.3025 54.1586 22.2603 54.2237 22.2076C54.5925 21.8851 55.0722 21.6437 55.611 21.5095C56.15 21.3754 56.7278 21.3535 57.282 21.4462C57.8364 21.5389 58.3464 21.7428 58.7571 22.0356C59.1677 22.3286 59.4635 22.6996 59.6126 23.1088C59.6441 23.1949 59.7059 23.2733 59.7915 23.3359C59.8772 23.3984 59.9835 23.4427 60.0996 23.4643C60.2159 23.486 60.3377 23.4841 60.4526 23.459C60.5675 23.4338 60.6714 23.3863 60.7535 23.3212C60.9894 23.1336 61.2872 22.9956 61.6172 22.921C61.947 22.8465 62.2974 22.8381 62.6331 22.8966C62.9688 22.9552 63.278 23.0786 63.5295 23.2544C63.7811 23.4303 63.9662 23.6526 64.0662 23.8987C64.0949 23.9694 64.1442 24.0346 64.2105 24.0895C64.277 24.1444 64.3587 24.1877 64.4499 24.2164C64.5413 24.2449 64.64 24.2582 64.739 24.2551C64.838 24.252 64.9347 24.2327 65.0226 24.1986C65.4671 24.0245 65.9616 23.9339 66.4637 23.9343C67.293 23.9351 68.0882 24.1814 68.6747 24.619C69.2612 25.0567 69.5912 25.6501 69.5922 26.2691C69.5918 26.352 69.5858 26.4349 69.5741 26.5174C69.5553 26.6498 69.6075 26.7822 69.7196 26.8857C69.8315 26.9892 69.9939 27.0554 70.1711 27.0697C70.4666 27.0941 70.752 27.1643 71.0091 27.2758C71.2662 27.3871 71.4896 27.5373 71.6646 27.7166C71.8395 27.896 71.9627 28.1005 72.0258 28.3174C72.089 28.5342 72.0909 28.7584 72.0315 28.9758C71.9955 29.1057 72.0297 29.2411 72.1268 29.3523C72.2238 29.4635 72.3758 29.5415 72.5496 29.5694C73.3793 29.7031 74.1134 30.061 74.6105 30.5744C75.1076 31.0878 75.3327 31.7202 75.2426 32.35C75.1523 32.9797 74.7531 33.5624 74.1218 33.9857C73.4904 34.409 72.6711 34.6433 71.8224 34.6431Z" fill="#004B81"/>
<path d="M65.6336 29.2734C65.4548 29.2734 65.2833 29.3264 65.1569 29.4207C65.0304 29.5151 64.9595 29.643 64.9595 29.7764C64.9595 29.9099 65.0304 30.0378 65.1569 30.1322C65.2833 30.2265 65.4548 30.2795 65.6336 30.2795C66.1185 30.2799 66.5835 30.424 66.9264 30.68C67.2695 30.9359 67.4624 31.283 67.4628 31.6449C67.4628 31.7783 67.5338 31.9063 67.6602 32.0006C67.7867 32.095 67.9581 32.148 68.1369 32.148C68.3157 32.148 68.4872 32.095 68.6136 32.0006C68.7399 31.9063 68.811 31.7783 68.811 31.6449C68.8101 31.0163 68.475 30.4134 67.8794 29.9689C67.2837 29.5242 66.476 29.2742 65.6336 29.2734Z" fill="#004B81"/>
<path d="M56.3696 24.9531C56.1909 24.9531 56.0195 25.006 55.893 25.1004C55.7666 25.1948 55.6956 25.3227 55.6956 25.4561C55.6956 25.5896 55.7666 25.7175 55.893 25.8119C56.0195 25.9062 56.1909 25.9592 56.3696 25.9592C56.8547 25.9595 57.3198 26.1036 57.6629 26.3596C58.0059 26.6155 58.1988 26.9626 58.1993 27.3246C58.1993 27.458 58.2704 27.586 58.3967 27.6803C58.5231 27.7747 58.6946 27.8277 58.8734 27.8277C59.0522 27.8277 59.2236 27.7747 59.3501 27.6803C59.4765 27.586 59.5475 27.458 59.5475 27.3246C59.5466 26.6958 59.2115 26.0931 58.6157 25.6485C58.0199 25.2038 57.2121 24.9538 56.3696 24.9531Z" fill="#004B81"/>
<path d="M43.017 27.2734H34.4236C32.4958 27.2749 30.6477 27.8207 29.2845 28.7909C27.9213 29.761 27.1545 31.0764 27.1524 32.4484V37.6902C26.5866 37.7942 26.085 38.0287 25.7262 38.3571C25.3674 38.6855 25.1716 39.0892 25.1694 39.5051V51.7369H22.5253V54.5596H33.1017V51.7369H30.4575V39.5051C30.4554 39.0892 30.2596 38.6855 29.9008 38.3571C29.542 38.0287 29.0404 37.7942 28.4745 37.6902V32.4484C28.4763 31.3259 29.1036 30.2497 30.2188 29.4559C31.3342 28.6621 32.8464 28.2156 34.4236 28.2143H35.7457V29.6257C35.7457 30 35.9547 30.359 36.3265 30.6236C36.6984 30.8883 37.2028 31.037 37.7287 31.037H43.017C43.5429 31.037 44.0473 30.8883 44.4192 30.6236C44.791 30.359 45 30 45 29.6257V28.6848C45 28.3105 44.791 27.9515 44.4192 27.6868C44.0473 27.4221 43.5429 27.2734 43.017 27.2734ZM31.7796 52.6778V53.6187H23.8474V52.6778H31.7796ZM29.1355 39.5051V51.7369H26.4915V39.5051C26.4915 39.2557 26.6307 39.0163 26.8786 38.8399C27.1266 38.6634 27.4629 38.5643 27.8134 38.5643C28.1641 38.5643 28.5004 38.6634 28.7482 38.8399C28.9962 39.0163 29.1355 39.2557 29.1355 39.5051ZM43.017 28.2143C43.1922 28.2143 43.3603 28.2639 43.4844 28.3522C43.6083 28.4404 43.6779 28.56 43.6779 28.6848H37.0677V28.2143H43.017ZM43.017 30.0961H37.7287C37.5534 30.0961 37.3854 30.0466 37.2613 29.9584C37.1374 29.8702 37.0677 29.7505 37.0677 29.6257H43.6779C43.6779 29.7505 43.6083 29.8702 43.4844 29.9584C43.3603 30.0466 43.1922 30.0961 43.017 30.0961Z" fill="#004B81"/>
</svg>
