<svg height="512" viewBox="0 0 128 128" width="512" xmlns="http://www.w3.org/2000/svg"><g><path d="m109.65 36.864v-6.294a1.75 1.75 0 0 0 -1.75-1.75h-14.131a1.751 1.751 0 0 0 -1.75 1.75v6.252h-6.859v-13.482a7.758 7.758 0 0 0 -7.75-7.75h-26.82a7.758 7.758 0 0 0 -7.75 7.75v13.482h-6.86v-6.252a1.751 1.751 0 0 0 -1.75-1.75h-14.13a1.751 1.751 0 0 0 -1.75 1.75v6.294a9.758 9.758 0 0 0 -8.918 9.708v56.087a9.761 9.761 0 0 0 9.75 9.75h89.636a9.761 9.761 0 0 0 9.75-9.75v-56.087a9.758 9.758 0 0 0 -8.918-9.708zm-14.131-4.544h10.631v4.5h-10.631zm-49.179-8.98a4.255 4.255 0 0 1 4.25-4.25h26.82a4.255 4.255 0 0 1 4.25 4.25v13.482h-3.5v-12.482a1.749 1.749 0 0 0 -1.75-1.75h-24.82a1.749 1.749 0 0 0 -1.75 1.75v12.482h-3.5zm28.32 13.482h-21.32v-10.732h21.32zm-42.18-4.5v4.5h-10.63v-4.5zm82.588 70.339a6.257 6.257 0 0 1 -6.25 6.25h-89.636a6.257 6.257 0 0 1 -6.25-6.25v-56.089a6.257 6.257 0 0 1 6.25-6.25h89.636a6.257 6.257 0 0 1 6.25 6.25z"/><path d="m82.09 65.365h-8.84v-8.84a1.75 1.75 0 0 0 -1.75-1.75h-15a1.751 1.751 0 0 0 -1.75 1.75v8.84h-8.84a1.751 1.751 0 0 0 -1.75 1.75v15a1.75 1.75 0 0 0 1.75 1.75h8.84v8.841a1.751 1.751 0 0 0 1.75 1.75h15a1.75 1.75 0 0 0 1.75-1.75v-8.841h8.84a1.749 1.749 0 0 0 1.75-1.75v-15a1.75 1.75 0 0 0 -1.75-1.75zm-1.75 15h-8.84a1.75 1.75 0 0 0 -1.75 1.75v8.841h-11.5v-8.841a1.751 1.751 0 0 0 -1.75-1.75h-8.84v-11.5h8.84a1.75 1.75 0 0 0 1.75-1.75v-8.84h11.5v8.84a1.749 1.749 0 0 0 1.75 1.75h8.84z"/></g></svg>