<svg width="192" height="121" viewBox="0 0 192 121" fill="none" xmlns="http://www.w3.org/2000/svg">
<path d="M180.6 32.1199C180.285 31.9213 172.8 27.3555 163.56 27.5729C154.35 27.7714 147.48 32.6681 147.18 32.8761C142.576 34.4522 138.695 36.7511 135.915 39.55C133.929 36.7764 130.607 34.4677 126.42 32.9517C125.722 32.7135 124.903 32.659 124.142 32.8C123.381 32.941 122.739 33.266 122.357 33.7042C121.974 34.1424 121.882 34.6582 122.101 35.1389C122.32 35.6195 122.832 36.0261 123.525 36.2698C123.63 36.3076 133.695 39.8903 130.965 46.2428C128.835 50.6298 127.25 55.1147 126.225 59.6568C125.85 61.037 125.475 62.3793 125.1 63.6933C124.491 60.5906 123.37 57.5364 121.755 54.5805C119.024 49.7717 115.117 45.2617 110.175 41.2138C109.981 41.0101 109.761 40.8172 109.515 40.6371C107.535 38.9923 105.45 37.3947 103.35 35.8349C101.175 33.9916 96.5401 28.8396 103.41 22.7235C103.865 22.3147 104.045 21.8089 103.91 21.3168C103.775 20.8247 103.336 20.3864 102.69 20.0976C102.043 19.8089 101.242 19.6933 100.46 19.7762C99.6786 19.8591 98.9811 20.1336 98.5201 20.5398C95.6334 22.9952 94.0011 25.9461 93.8401 29.0003C88.2367 25.1607 83.2848 20.9628 79.0651 16.4749C78.6901 15.3217 77.3551 9.98064 83.6251 8.01439C83.9795 7.90459 84.296 7.75175 84.5564 7.56465C84.8168 7.37755 85.016 7.15988 85.1426 6.92412C85.2691 6.68837 85.3206 6.43918 85.2939 6.19087C85.2672 5.94256 85.163 5.70001 84.9872 5.47716C84.8113 5.25431 84.5674 5.05554 84.2693 4.89226C83.9713 4.72898 83.625 4.60442 83.2503 4.52572C82.8757 4.44702 82.4801 4.41573 82.0862 4.43366C81.6923 4.45158 81.3079 4.51837 80.9551 4.63017C77.8915 5.5638 75.475 7.17078 74.1601 9.14877C73.0475 6.75032 72.3731 4.27965 72.1501 1.78478C72.1063 1.28461 71.7491 0.81588 71.1569 0.481706C70.5648 0.147532 69.7862 -0.0247111 68.9926 0.00286724C68.1989 0.0304456 67.4551 0.255587 66.9249 0.628762C66.3946 1.00194 66.1213 1.49258 66.1651 1.99275C66.6657 7.57521 69.163 13.014 73.4701 17.9024C73.5604 18.0209 73.6658 18.1347 73.7851 18.2427C78.8551 24.0091 85.7851 28.972 92.6101 33.8309C91.6501 33.5756 88.3951 32.7154 88.3951 32.7154C79.5601 30.4088 65.9401 26.8261 58.8001 21.7876C58.7251 21.7309 58.6501 21.6836 58.5751 21.6269C57.0386 20.556 55.8193 19.3201 54.9751 17.978C54.2611 16.7245 53.9814 15.3892 54.1548 14.0619C54.3281 12.7347 54.9505 11.4462 55.9801 10.2831C56.1551 10.0602 56.2587 9.81764 56.2847 9.56941C56.3107 9.32119 56.2586 9.07217 56.1316 8.83664C56.0045 8.60112 55.8049 8.38372 55.5443 8.19692C55.2836 8.01011 54.9669 7.85758 54.6125 7.74808C54.2581 7.63857 53.8728 7.57425 53.4788 7.55879C53.0849 7.54333 52.6899 7.57704 52.3167 7.65799C51.9434 7.73894 51.5992 7.86554 51.3038 8.03052C51.0083 8.1955 50.7675 8.39562 50.5951 8.61939C48.3978 11.2498 47.6386 14.2635 48.4351 17.1934C46.9298 16.8322 45.3859 16.5385 43.8151 16.3142C41.5951 15.1137 35.1751 12.0697 27.6151 12.2305C18.3901 12.4385 11.5201 17.3257 11.2351 17.5337C10.73 17.8981 10.4656 18.3707 10.4963 18.8542C10.527 19.3377 10.8504 19.7954 11.4001 20.1333C11.7151 20.3224 18.9151 24.6803 27.8401 24.6803H28.4401C31.7245 24.5681 34.9185 23.9619 37.7551 22.9125C39.8622 22.1488 41.8161 21.2284 43.5751 20.1711C47.6662 20.7544 51.3552 22.1453 54.1051 24.1414C54.1563 24.1814 54.2114 24.2192 54.2701 24.2549C62.4001 29.9929 76.7401 33.7553 86.0851 36.2131L87.4651 36.5723C93.4801 38.151 100.275 39.9565 104.865 43.0571C106.773 44.6401 108.55 46.284 110.19 47.9822C103.692 47.3336 97.0363 48.0477 91.2451 50.0146C88.8601 49.6838 80.0101 48.7195 72.7651 51.461C64.5151 54.5899 61.9351 61.1788 61.8301 61.4624C61.6461 61.941 61.7679 62.446 62.1691 62.8686C62.5703 63.2912 63.2189 63.5975 63.9751 63.7217C66.3174 64.0794 68.7199 64.2571 71.1301 64.251C75.2985 64.3121 79.4149 63.6586 83.0401 62.3604C89.2501 60.016 92.2501 55.7054 93.4051 53.5879C96.8851 52.1888 103.41 50.7047 113.79 52.2361C114.657 53.4003 115.423 54.5931 116.085 55.8094C120.014 63.0026 120.7 70.7419 118.065 78.166C117.569 79.5257 116.922 80.8619 116.13 82.1647L116.115 82.1742C115.153 83.7389 114.005 85.2558 112.68 86.7117C112.256 83.724 110.398 80.8884 107.355 78.582C100.74 73.7231 90.7351 73.6191 90.3001 73.6191H90.2851C89.4932 73.619 88.7334 73.8162 88.1713 74.1677C87.6092 74.5193 87.2904 74.9966 87.2845 75.4956C87.2785 75.9947 87.5859 76.4749 88.1396 76.8317C88.6932 77.1885 89.4483 77.3929 90.2401 77.4003C90.3151 77.4003 98.0401 77.5138 102.855 81.0776C106.35 83.6583 107.58 87.4963 106.545 92.4592C104.55 94.104 102.435 95.7394 100.215 97.441L98.5201 98.7455C96.3032 100.445 94.2255 102.215 92.2951 104.049C87.8093 104.437 83.6616 105.766 80.5201 107.82C77.4751 109.777 74.2501 109.286 68.8201 108.255C65.8359 107.564 62.6845 107.202 59.5051 107.187C56.9565 107.287 54.4657 107.708 52.1803 108.426C49.8949 109.144 47.8613 110.143 46.2001 111.365C44.6858 112.438 43.5392 113.696 42.832 115.061C42.1248 116.425 41.8722 117.867 42.0901 119.297C42.1279 119.544 42.2431 119.784 42.429 120.003C42.6149 120.223 42.8679 120.417 43.1733 120.574C43.4787 120.731 43.8305 120.849 44.2084 120.92C44.5863 120.991 44.9828 121.015 45.3751 120.989L134.52 120.979C134.639 120.99 134.76 120.997 134.88 120.998C135.612 120.997 136.318 120.828 136.866 120.521C137.413 120.215 137.763 119.792 137.85 119.334C138.246 117.589 137.983 115.809 137.081 114.14C136.179 112.471 134.664 110.96 132.66 109.73C129.934 108.152 126.691 106.97 123.161 106.268C119.631 105.565 115.9 105.36 112.23 105.665C111.93 105.694 111.63 105.722 111.33 105.76C113.623 107.691 114.755 110.073 114.525 112.481C114.485 112.951 114.168 113.396 113.635 113.726C113.102 114.057 112.392 114.25 111.645 114.268H111.375C110.582 114.241 109.838 114.017 109.306 113.644C108.775 113.272 108.499 112.782 108.54 112.282C108.614 111.226 108.3 110.174 107.624 109.207C106.947 108.239 105.926 107.383 104.64 106.705C104.61 106.696 103.788 106.272 103.368 106.045C102.73 105.714 102.047 105.419 101.325 105.164C100.596 104.909 99.8329 104.694 99.0451 104.521C100.455 103.283 101.865 102.139 103.17 101.137L104.865 99.8326C111.525 94.709 117.885 89.8123 121.725 83.507C121.727 83.5071 121.729 83.5068 121.731 83.5064C121.733 83.5059 121.734 83.5052 121.736 83.5043C121.737 83.5034 121.738 83.5024 121.739 83.5012C121.74 83.5001 121.74 83.4988 121.74 83.4976C121.785 83.422 126.675 75.4624 137.115 76.2376C137.905 76.2965 138.699 76.1553 139.324 75.8451C139.948 75.5348 140.351 75.081 140.445 74.5833C140.538 74.0856 140.314 73.5849 139.822 73.1914C139.33 72.7978 138.61 72.5436 137.82 72.4847C134.138 72.1807 130.399 72.6315 127.155 73.7703C127.665 72.8439 128.115 71.9742 128.49 71.1991C130.074 67.6124 131.291 63.9655 132.135 60.2807C133.102 55.9911 134.581 51.7535 136.56 47.6041C136.59 47.5474 136.65 47.5001 136.68 47.4339C136.725 47.3394 136.74 47.2449 136.785 47.1503C139.26 42.6506 142.98 38.8316 149.25 36.4872C152.01 37.8295 157.455 40.0227 163.785 40.0227C163.98 40.0227 164.19 40.0227 164.385 40.0132C168.552 39.8421 172.554 38.9237 175.92 37.3663C177.691 36.6007 179.317 35.7094 180.765 34.71C181.27 34.3474 181.535 33.8763 181.504 33.3942C181.473 32.9121 181.15 32.4558 180.6 32.1199Z" fill="#004B81"/>
</svg>
